<svg width="238" height="52" viewBox="0 0 238 52" fill="none" xmlns="http://www.w3.org/2000/svg">
<path d="M21.3574 38.8841C21.678 42.8433 22.4117 47.1562 23.5647 51.8231C10.3334 50.237 0 39 0 25.4937C0 18.2037 3.01495 11.5725 7.86722 6.77147C11.0548 3.61755 15.0316 1.25059 19.4708 0C14.8404 2.74519 11.2213 6.85077 9.02018 12.0483C6.28268 18.4843 6.89307 25.939 10.6355 31.4965C13.1942 35.3031 16.9675 37.8714 21.3574 38.8841Z" fill="white"/>
<path d="M25.617 35.3947C25.469 35.3947 25.3149 35.3825 25.1731 35.3825C24.9696 25.7012 27.8982 20.0705 32.3374 17.8133C37.0109 15.4342 42.7078 17.3863 44.502 20.6622C45.8029 23.0536 45.8029 25.3535 44.502 27.513C41.746 32.0761 33.811 35.3947 25.6108 35.3947H25.617Z" fill="white"/>
<path d="M53.5973 25.4937C53.5973 32.7898 50.5823 39.4149 45.7301 44.2281C41.0813 48.8279 34.7554 51.7622 27.7514 52.0001C26.5306 47.2722 25.7661 43.063 25.4085 39.3478C35.1192 39.4149 44.4415 35.3642 47.9558 29.5383C50.0028 26.1465 50.0213 22.4191 48.0236 18.7711C44.7436 12.7622 36.0687 11.4445 30.495 14.2873C26.9499 16.0991 21.1419 21.1502 21.1851 34.7359C18.2503 33.8208 15.7656 31.9663 13.9714 29.3004C10.975 24.8288 10.494 18.8077 12.7075 13.5857C17.0973 3.26991 26.1915 0.811437 31.2102 0.2685C32.3447 0.146491 33.4422 0.0915875 34.4965 0.109889C38.7877 1.37878 42.635 3.70914 45.7301 6.77155C50.5823 11.5726 53.5973 18.2037 53.5973 25.4937Z" fill="white"/>
<path d="M96.3668 27.8728C97.0327 28.8672 97.3656 30.1361 97.3656 31.6856C97.3656 32.9484 97.119 34.1258 96.6196 35.2056C96.1263 36.2914 95.3865 37.2248 94.4123 38.0117C93.432 38.7987 92.2235 39.4148 90.7746 39.848C89.3257 40.2872 87.6549 40.5068 85.7497 40.5068C84.2084 40.5068 82.7163 40.3177 81.2736 39.9456C79.8247 39.5735 78.5484 38.9817 77.4386 38.1826C76.3288 37.3834 75.4471 36.3646 74.7997 35.1262C74.473 34.504 74.2325 33.8269 74.0784 33.0948C73.8194 31.8625 74.8367 30.7156 76.113 30.7156H78.0983C79.0108 30.7156 79.7568 31.3562 79.9911 32.2346C80.0713 32.5397 80.1823 32.8203 80.3179 33.0765C80.657 33.7232 81.1071 34.2417 81.6682 34.6443C82.2292 35.0469 82.8889 35.3398 83.6411 35.535C84.3995 35.7302 85.1763 35.8278 85.9902 35.8278C86.5389 35.8278 87.1247 35.7851 87.7474 35.6936C88.3701 35.6021 88.962 35.4313 89.5045 35.169C90.0533 34.9127 90.5095 34.5589 90.8733 34.1075C91.2371 33.656 91.422 33.0826 91.422 32.3872C91.422 31.6368 91.1816 31.0329 90.7007 30.5692C90.2197 30.1056 89.5847 29.7152 88.8017 29.4102C88.0187 29.099 87.1308 28.8306 86.1443 28.5988C85.1517 28.367 84.1467 28.1108 83.1355 27.824C82.0936 27.5678 81.0763 27.2506 80.0836 26.8785C79.091 26.5064 78.2031 26.0183 77.4263 25.4266C76.6432 24.8348 76.0082 24.0906 75.5273 23.1999C75.0464 22.3093 74.8059 21.2356 74.8059 19.9667C74.8059 18.5453 75.1142 17.313 75.7246 16.2698C76.335 15.2267 77.1365 14.3543 78.1291 13.6589C79.1218 12.9634 80.2377 12.4449 81.4955 12.1094C82.7471 11.7738 83.9987 11.603 85.2503 11.603C86.7116 11.603 88.1111 11.7616 89.4552 12.085C90.7993 12.4083 91.9893 12.9329 93.0312 13.6528C94.0732 14.3787 94.8994 15.2999 95.5159 16.4224C95.7687 16.886 95.966 17.3862 96.1202 17.9353C96.4716 19.2286 95.4789 20.5096 94.1225 20.5096H92.1927C91.2925 20.5096 90.5157 19.924 90.2321 19.076C90.1581 18.8503 90.0656 18.6429 89.9608 18.4538C89.6587 17.9109 89.2641 17.4838 88.7708 17.1788C88.2776 16.8677 87.7104 16.6481 87.0692 16.52C86.4279 16.3919 85.7312 16.3248 84.9729 16.3248C84.4796 16.3248 83.9802 16.3797 83.487 16.4773C82.9937 16.581 82.5437 16.764 82.1367 17.0202C81.7298 17.2764 81.403 17.5997 81.1379 17.9902C80.879 18.3745 80.7495 18.8686 80.7495 19.4604C80.7495 20.0033 80.8543 20.4425 81.0639 20.7781C81.2736 21.1136 81.6805 21.4247 82.297 21.7053C82.9074 21.992 83.7583 22.2727 84.8372 22.5594C85.9162 22.8461 87.3343 23.206 89.0791 23.6453C89.6032 23.749 90.3246 23.9381 91.2494 24.2065C92.1742 24.4749 93.0929 24.908 94.0054 25.5059C94.9179 26.0976 95.7071 26.8907 96.3729 27.885L96.3668 27.8728ZM161.136 29.5383C160.538 29.1112 159.853 28.7696 159.083 28.5134C158.312 28.2572 157.523 28.0376 156.715 27.8545C155.932 27.6715 155.161 27.5068 154.409 27.3543C153.651 27.2018 152.979 27.0249 152.393 26.8297C151.807 26.6345 151.333 26.3843 150.969 26.0732C150.605 25.7621 150.42 25.3656 150.42 24.8714C150.42 24.4566 150.525 24.1272 150.734 23.8832C150.944 23.6392 151.197 23.45 151.499 23.3219C151.801 23.1938 152.134 23.1084 152.498 23.0718C152.862 23.0352 153.201 23.0169 153.515 23.0169C154.508 23.0169 155.365 23.206 156.098 23.5782C156.505 23.7856 156.808 24.0967 157.011 24.5115C157.369 25.2375 158.071 25.7255 158.885 25.7255H159.933C161.53 25.7255 162.492 23.9747 161.629 22.6509C161.093 21.8395 160.421 21.1868 159.613 20.6988C158.805 20.2107 157.886 19.863 156.857 19.6556C155.827 19.4482 154.767 19.3445 153.669 19.3445C152.572 19.3445 151.505 19.4421 150.463 19.6373C149.421 19.8325 148.478 20.168 147.646 20.6439C146.813 21.1197 146.141 21.7724 145.629 22.596C145.124 23.4195 144.865 24.481 144.865 25.7682C144.865 26.6467 145.05 27.3848 145.414 27.9949C145.777 28.5988 146.258 29.1051 146.863 29.5017C147.461 29.9043 148.145 30.2215 148.916 30.4716C149.686 30.7156 150.476 30.9292 151.283 31.1122C153.262 31.527 154.81 31.9357 155.92 32.3506C157.029 32.7654 157.578 33.3815 157.578 34.2112C157.578 34.6992 157.461 35.1079 157.227 35.4313C156.992 35.7546 156.697 36.0108 156.345 36.206C155.994 36.4012 155.605 36.5415 155.174 36.6331C154.742 36.7246 154.335 36.7673 153.941 36.7673C153.392 36.7673 152.868 36.7063 152.356 36.572C151.85 36.4439 151.4 36.2365 151.006 35.9742C150.482 35.6265 150.149 35.1384 149.951 34.6626C149.631 33.9001 148.885 33.3998 148.052 33.3998H146.93C145.475 33.3998 144.402 34.8822 145.013 36.1877C145.105 36.3829 145.204 36.572 145.321 36.749C145.882 37.6396 146.597 38.3534 147.473 38.8963C148.348 39.4392 149.341 39.8236 150.463 40.0554C151.585 40.2872 152.732 40.4031 153.904 40.4031C155.05 40.4031 156.179 40.2933 157.288 40.0737C158.398 39.8541 159.379 39.4758 160.242 38.9329C161.105 38.39 161.802 37.6762 162.332 36.7856C162.868 35.8949 163.133 34.7907 163.133 33.4791C163.133 32.5519 162.948 31.771 162.585 31.1366C162.221 30.5021 161.74 29.9775 161.136 29.5505V29.5383ZM130.259 12.2558H130.24C127.971 12.2558 126.276 12.8231 125.154 13.9578C124.032 15.0925 123.47 16.5505 123.47 18.3318V39.8846H129.026V23.5538H135.438V39.8846H140.993V21.9188C140.993 20.7903 140.068 19.8813 138.934 19.8813H137.509H135.438H129.026V18.6795C129.032 17.6302 129.895 16.7823 130.955 16.7823H131.202C132.343 16.7823 133.261 15.8672 133.261 14.7447V12.2558H130.259ZM119.968 25.5486C120.462 26.8541 120.714 28.306 120.714 29.9043C120.714 31.5026 120.468 32.9484 119.968 34.2356C119.475 35.5289 118.766 36.627 117.86 37.542C116.947 38.4571 115.844 39.1586 114.555 39.6528C113.267 40.1408 111.824 40.3848 110.233 40.3848C108.642 40.3848 107.206 40.1408 105.93 39.6528C104.653 39.1647 103.556 38.4571 102.643 37.542C101.731 36.627 101.028 35.5228 100.529 34.2356C100.035 32.9484 99.7887 31.5026 99.7887 29.9043C99.7887 28.306 100.035 26.8541 100.529 25.5486C101.022 24.2492 101.725 23.1389 102.643 22.2178C103.556 21.3027 104.647 20.595 105.93 20.0887C107.206 19.5885 108.642 19.3323 110.233 19.3323C111.824 19.3323 113.267 19.5824 114.555 20.0887C115.844 20.595 116.947 21.3027 117.86 22.2178C118.772 23.1328 119.475 24.2431 119.968 25.5486ZM115.159 29.9043C115.159 29.1051 115.079 28.3182 114.925 27.5434C114.771 26.7687 114.5 26.0854 114.124 25.4937C113.747 24.9019 113.236 24.4139 112.601 24.0418C111.959 23.6697 111.176 23.4805 110.233 23.4805C109.296 23.4805 108.513 23.6697 107.884 24.0418C107.255 24.4139 106.756 24.9019 106.38 25.4937C106.004 26.0854 105.732 26.7687 105.578 27.5434C105.424 28.3182 105.344 29.1051 105.344 29.9043C105.344 30.7034 105.424 31.4843 105.578 32.2468C105.732 33.0094 106.004 33.6926 106.38 34.2966C106.756 34.9005 107.261 35.3886 107.884 35.7485C108.513 36.1084 109.29 36.2914 110.233 36.2914C111.176 36.2914 111.959 36.1084 112.601 35.7485C113.242 35.3886 113.747 34.9005 114.124 34.2966C114.5 33.6926 114.771 33.0094 114.925 32.2468C115.079 31.4843 115.159 30.7034 115.159 29.9043ZM171.895 15.9221C171.895 14.7935 170.97 13.8846 169.835 13.8846H166.339V35.3642C166.339 36.3707 166.506 37.1821 166.845 37.8043C167.184 38.4266 167.647 38.9024 168.232 39.2379C168.818 39.5735 169.496 39.7992 170.267 39.9151C171.038 40.031 171.851 40.092 172.708 40.092C173.257 40.092 173.818 40.0798 174.392 40.0554C174.965 40.031 175.489 39.9761 175.958 39.9029V35.6448C175.699 35.6997 175.421 35.7363 175.138 35.7607C174.848 35.7851 174.552 35.7973 174.237 35.7973C173.3 35.7973 172.671 35.6448 172.363 35.3337C172.049 35.0225 171.895 34.4064 171.895 33.473V23.566H173.898C175.039 23.566 175.958 22.6509 175.958 21.5284V19.8935H171.888V15.9343L171.895 15.9221ZM182.271 19.8813H178.781V39.8907H184.337V21.9249C184.337 20.7964 183.412 19.8874 182.277 19.8874L182.271 19.8813ZM182.271 12.2558H178.781V14.7447C178.781 15.8733 179.706 16.7823 180.841 16.7823H182.271C183.412 16.7823 184.33 15.8672 184.33 14.7447V14.2933C184.33 13.1647 183.406 12.2558 182.271 12.2558ZM138.952 12.2558H135.462V14.7447C135.462 15.8733 136.387 16.7823 137.522 16.7823H138.952C140.093 16.7823 141.011 15.8672 141.011 14.7447V14.2933C141.011 13.1647 140.087 12.2558 138.952 12.2558Z" fill="white"/>
<path d="M237.249 25.5488C237.742 26.8543 237.995 28.3062 237.995 29.9045C237.995 31.5028 237.748 32.9486 237.249 34.2358C236.756 35.5291 236.047 36.6272 235.14 37.5423C234.228 38.4573 233.124 39.1589 231.836 39.653C230.547 40.141 229.104 40.3851 227.514 40.3851C225.923 40.3851 224.486 40.141 223.21 39.653C221.934 39.165 220.836 38.4573 219.924 37.5423C219.011 36.6272 218.308 35.523 217.809 34.2358C217.316 32.9486 217.069 31.5028 217.069 29.9045C217.069 28.3062 217.316 26.8543 217.809 25.5488C218.302 24.2494 219.005 23.1392 219.924 22.218C220.836 21.3029 221.928 20.5953 223.21 20.089C224.486 19.5887 225.923 19.3325 227.514 19.3325C229.104 19.3325 230.547 19.5826 231.836 20.089C233.124 20.5953 234.228 21.3029 235.14 22.218C236.053 23.1331 236.756 24.2433 237.249 25.5488ZM232.44 29.9045C232.44 29.1054 232.36 28.3184 232.206 27.5437C232.051 26.7689 231.78 26.0857 231.404 25.4939C231.028 24.9022 230.516 24.4142 229.881 24.042C229.24 23.6699 228.457 23.4808 227.514 23.4808C226.57 23.4808 225.793 23.6699 225.164 24.042C224.536 24.4142 224.036 24.9022 223.66 25.4939C223.284 26.0857 223.013 26.7689 222.859 27.5437C222.704 28.3184 222.624 29.1054 222.624 29.9045C222.624 30.7037 222.704 31.4845 222.859 32.2471C223.013 33.0096 223.284 33.6929 223.66 34.2968C224.036 34.9008 224.542 35.3888 225.164 35.7487C225.793 36.1087 226.57 36.2917 227.514 36.2917C228.451 36.2917 229.24 36.1087 229.881 35.7487C230.522 35.3888 231.028 34.9008 231.404 34.2968C231.78 33.6929 232.051 33.0096 232.206 32.2471C232.36 31.4845 232.44 30.7037 232.44 29.9045ZM211.65 29.2457H209.775C208.857 29.2457 208.098 29.874 207.852 30.7525C207.519 31.9299 206.97 32.9242 206.218 33.7356C205.163 34.8703 203.696 35.4376 201.816 35.4376C200.435 35.4376 199.263 35.1753 198.295 34.6446C197.327 34.1138 196.55 33.4123 195.946 32.5338C195.348 31.6554 194.91 30.6732 194.633 29.5751C194.361 28.477 194.22 27.3485 194.22 26.1894C194.22 24.9754 194.355 23.8041 194.633 22.6694C194.904 21.5348 195.342 20.5221 195.946 19.6314C196.544 18.7408 197.327 18.0331 198.295 17.5024C199.257 16.9716 200.435 16.7093 201.816 16.7093C202.574 16.7093 203.295 16.8313 203.986 17.0753C204.676 17.3194 205.299 17.661 205.842 18.1002C206.39 18.5394 206.847 19.0458 207.21 19.6314C207.346 19.8449 207.463 20.0707 207.562 20.3025C207.889 21.0528 208.629 21.547 209.455 21.547H211.292C212.679 21.547 213.721 20.1988 213.265 18.9055C213.062 18.3381 212.821 17.8013 212.531 17.2889C211.828 16.0505 210.934 15.0134 209.849 14.1715C208.77 13.3358 207.543 12.6952 206.175 12.256C204.806 11.8168 203.351 11.5972 201.816 11.5972C199.676 11.5972 197.753 11.9693 196.045 12.7196C194.337 13.47 192.894 14.501 191.723 15.8126C190.551 17.1302 189.651 18.6676 189.022 20.4367C188.399 22.2058 188.085 24.1213 188.085 26.1833C188.085 28.2452 188.399 30.0753 189.022 31.814C189.651 33.5526 190.545 35.0716 191.723 36.3588C192.894 37.6521 194.337 38.6586 196.045 39.3968C197.753 40.1349 199.676 40.501 201.816 40.501C203.536 40.501 205.114 40.2447 206.551 39.7262C207.987 39.2077 209.239 38.4634 210.306 37.4813C211.372 36.4991 212.235 35.3156 212.889 33.9186C213.203 33.2476 213.462 32.5338 213.66 31.7835C213.999 30.4963 213 29.2335 211.656 29.2335L211.65 29.2457Z" fill="white"/>
</svg>
