<svg width="238" height="52" viewBox="0 0 238 52" fill="none" xmlns="http://www.w3.org/2000/svg">
<path d="M21.3574 38.8841C21.678 42.8433 22.4117 47.1562 23.5647 51.8231C10.3334 50.237 0 39 0 25.4937C0 18.2037 3.01495 11.5725 7.86722 6.77147C11.0548 3.61755 15.0316 1.25059 19.4708 0C14.8404 2.74519 11.2213 6.85077 9.02018 12.0483C6.28268 18.4843 6.89307 25.939 10.6355 31.4965C13.1942 35.3031 16.9675 37.8714 21.3574 38.8841Z" fill="black"/>
<path d="M25.6172 35.3945C25.4692 35.3945 25.3151 35.3823 25.1733 35.3823C24.9698 25.701 27.8985 20.0703 32.3376 17.8131C37.0111 15.434 42.7081 17.3861 44.5022 20.662C45.8032 23.0534 45.8032 25.3532 44.5022 27.5128C41.7463 32.0759 33.8112 35.3945 25.6111 35.3945H25.6172Z" fill="black"/>
<path d="M53.597 25.4937C53.597 32.7898 50.5821 39.4148 45.7298 44.2281C41.081 48.8278 34.7552 51.7621 27.7511 52C26.5304 47.2722 25.7658 43.0629 25.4082 39.3477C35.1189 39.4148 44.4412 35.3642 47.9556 29.5382C50.0025 26.1464 50.021 22.4191 48.0234 18.771C44.7433 12.7621 36.0684 11.4444 30.4948 14.2872C26.9496 16.099 21.1417 21.1502 21.1848 34.7358C18.25 33.8207 15.7653 31.9662 13.9712 29.3003C10.9747 24.8287 10.4938 18.8076 12.7072 13.5857C17.0971 3.26984 26.1912 0.811369 31.21 0.268431C32.3444 0.146423 33.4419 0.0915189 34.4962 0.10982C38.7874 1.37871 42.6347 3.70907 45.7298 6.77148C50.5821 11.5725 53.597 18.2037 53.597 25.4937Z" fill="black"/>
<path d="M96.3668 27.8729C97.0327 28.8673 97.3656 30.1361 97.3656 31.6857C97.3656 32.9484 97.119 34.1258 96.6196 35.2056C96.1263 36.2915 95.3865 37.2248 94.4123 38.0118C93.432 38.7987 92.2235 39.4149 90.7746 39.848C89.3257 40.2872 87.6549 40.5069 85.7497 40.5069C84.2084 40.5069 82.7163 40.3177 81.2736 39.9456C79.8247 39.5735 78.5484 38.9818 77.4386 38.1826C76.3288 37.3834 75.4471 36.3647 74.7997 35.1263C74.473 34.504 74.2325 33.8269 74.0784 33.0948C73.8194 31.8626 74.8367 30.7157 76.113 30.7157H78.0983C79.0108 30.7157 79.7568 31.3562 79.9911 32.2347C80.0713 32.5397 80.1823 32.8203 80.3179 33.0765C80.657 33.7232 81.1071 34.2417 81.6682 34.6444C82.2292 35.047 82.8889 35.3398 83.6411 35.535C84.3995 35.7302 85.1763 35.8278 85.9902 35.8278C86.5389 35.8278 87.1247 35.7851 87.7474 35.6936C88.3701 35.6021 88.962 35.4313 89.5045 35.169C90.0533 34.9128 90.5095 34.5589 90.8733 34.1075C91.2371 33.6561 91.422 33.0826 91.422 32.3872C91.422 31.6368 91.1816 31.0329 90.7007 30.5693C90.2197 30.1056 89.5847 29.7152 88.8017 29.4102C88.0187 29.0991 87.1308 28.8307 86.1443 28.5988C85.1517 28.367 84.1467 28.1108 83.1355 27.8241C82.0936 27.5679 81.0763 27.2506 80.0836 26.8785C79.091 26.5064 78.2031 26.0184 77.4263 25.4266C76.6432 24.8349 76.0082 24.0906 75.5273 23.2C75.0464 22.3093 74.8059 21.2356 74.8059 19.9667C74.8059 18.5453 75.1142 17.3131 75.7246 16.2699C76.335 15.2267 77.1365 14.3544 78.1291 13.6589C79.1218 12.9635 80.2377 12.4449 81.4955 12.1094C82.7471 11.7739 83.9987 11.6031 85.2503 11.6031C86.7116 11.6031 88.1111 11.7617 89.4552 12.085C90.7993 12.4083 91.9893 12.933 93.0312 13.6528C94.0732 14.3788 94.8994 15.2999 95.5159 16.4224C95.7687 16.886 95.966 17.3863 96.1202 17.9353C96.4716 19.2286 95.479 20.5097 94.1225 20.5097H92.1927C91.2926 20.5097 90.5157 19.924 90.2321 19.0761C90.1581 18.8504 90.0656 18.643 89.9608 18.4538C89.6587 17.9109 89.2641 17.4839 88.7708 17.1788C88.2776 16.8677 87.7104 16.6481 87.0692 16.52C86.4279 16.3919 85.7312 16.3248 84.9729 16.3248C84.4796 16.3248 83.9802 16.3797 83.487 16.4773C82.9937 16.581 82.5437 16.764 82.1367 17.0202C81.7298 17.2765 81.403 17.5998 81.1379 17.9902C80.879 18.3745 80.7495 18.8687 80.7495 19.4604C80.7495 20.0033 80.8543 20.4426 81.0639 20.7781C81.2736 21.1136 81.6805 21.4247 82.297 21.7054C82.9074 21.9921 83.7583 22.2727 84.8372 22.5594C85.9162 22.8461 87.3343 23.2061 89.0791 23.6453C89.6032 23.749 90.3246 23.9381 91.2494 24.2065C92.1742 24.475 93.0929 24.9081 94.0054 25.5059C94.9179 26.0977 95.7071 26.8907 96.373 27.8851L96.3668 27.8729ZM161.136 29.5383C160.538 29.1113 159.853 28.7697 159.083 28.5134C158.312 28.2572 157.523 28.0376 156.715 27.8546C155.932 27.6716 155.161 27.5069 154.409 27.3544C153.651 27.2018 152.979 27.0249 152.393 26.8297C151.807 26.6345 151.333 26.3844 150.969 26.0733C150.605 25.7621 150.42 25.3656 150.42 24.8715C150.42 24.4567 150.525 24.1272 150.734 23.8832C150.944 23.6392 151.197 23.4501 151.499 23.322C151.801 23.1939 152.134 23.1085 152.498 23.0719C152.862 23.0353 153.201 23.017 153.515 23.017C154.508 23.017 155.365 23.2061 156.098 23.5782C156.505 23.7856 156.808 24.0967 157.011 24.5116C157.369 25.2375 158.071 25.7255 158.885 25.7255H159.933C161.53 25.7255 162.492 23.9747 161.629 22.6509C161.093 21.8396 160.421 21.1868 159.613 20.6988C158.805 20.2108 157.886 19.863 156.857 19.6556C155.827 19.4482 154.767 19.3445 153.669 19.3445C152.572 19.3445 151.505 19.4421 150.463 19.6373C149.421 19.8325 148.478 20.1681 147.646 20.6439C146.813 21.1197 146.141 21.7725 145.629 22.596C145.124 23.4196 144.865 24.4811 144.865 25.7682C144.865 26.6467 145.05 27.3849 145.414 27.9949C145.777 28.5988 146.258 29.1052 146.863 29.5017C147.461 29.9043 148.145 30.2216 148.916 30.4717C149.686 30.7157 150.476 30.9292 151.283 31.1122C153.262 31.527 154.81 31.9358 155.92 32.3506C157.029 32.7654 157.578 33.3816 157.578 34.2112C157.578 34.6993 157.461 35.108 157.227 35.4313C156.992 35.7546 156.697 36.0108 156.345 36.2061C155.994 36.4013 155.605 36.5416 155.174 36.6331C154.742 36.7246 154.335 36.7673 153.941 36.7673C153.392 36.7673 152.868 36.7063 152.356 36.5721C151.85 36.444 151.4 36.2366 151.006 35.9742C150.482 35.6265 150.149 35.1385 149.951 34.6627C149.631 33.9001 148.885 33.3999 148.052 33.3999H146.93C145.475 33.3999 144.402 34.8823 145.013 36.1878C145.105 36.383 145.204 36.5721 145.321 36.749C145.882 37.6397 146.597 38.3534 147.473 38.8963C148.348 39.4393 149.341 39.8236 150.463 40.0554C151.585 40.2872 152.732 40.4032 153.904 40.4032C155.05 40.4032 156.179 40.2933 157.288 40.0737C158.398 39.8541 159.379 39.4759 160.242 38.933C161.105 38.39 161.802 37.6763 162.332 36.7856C162.868 35.8949 163.133 34.7908 163.133 33.4792C163.133 32.5519 162.948 31.7711 162.585 31.1366C162.221 30.5022 161.74 29.9775 161.136 29.5505V29.5383ZM130.259 12.2558H130.24C127.971 12.2558 126.276 12.8231 125.154 13.9578C124.032 15.0925 123.47 16.5505 123.47 18.3318V39.8846H129.026V23.5538H135.438V39.8846H140.993V21.9189C140.993 20.7903 140.068 19.8813 138.934 19.8813H137.509H135.438H129.026V18.6796C129.032 17.6303 129.895 16.7823 130.955 16.7823H131.202C132.343 16.7823 133.261 15.8673 133.261 14.7448V12.2558H130.259ZM119.968 25.5486C120.462 26.8541 120.714 28.306 120.714 29.9043C120.714 31.5026 120.468 32.9484 119.968 34.2356C119.475 35.5289 118.766 36.627 117.86 37.5421C116.947 38.4571 115.844 39.1587 114.555 39.6528C113.267 40.1408 111.824 40.3848 110.233 40.3848C108.642 40.3848 107.206 40.1408 105.93 39.6528C104.653 39.1648 103.556 38.4571 102.643 37.5421C101.731 36.627 101.028 35.5228 100.529 34.2356C100.035 32.9484 99.7887 31.5026 99.7887 29.9043C99.7887 28.306 100.035 26.8541 100.529 25.5486C101.022 24.2492 101.725 23.139 102.643 22.2178C103.556 21.3027 104.647 20.5951 105.93 20.0888C107.206 19.5885 108.642 19.3323 110.233 19.3323C111.824 19.3323 113.267 19.5824 114.555 20.0888C115.844 20.5951 116.947 21.3027 117.86 22.2178C118.772 23.1329 119.475 24.2431 119.968 25.5486ZM115.159 29.9043C115.159 29.1052 115.079 28.3182 114.925 27.5435C114.771 26.7687 114.5 26.0855 114.124 25.4937C113.747 24.902 113.236 24.4139 112.601 24.0418C111.959 23.6697 111.176 23.4806 110.233 23.4806C109.296 23.4806 108.513 23.6697 107.884 24.0418C107.255 24.4139 106.756 24.902 106.38 25.4937C106.004 26.0855 105.732 26.7687 105.578 27.5435C105.424 28.3182 105.344 29.1052 105.344 29.9043C105.344 30.7035 105.424 31.4843 105.578 32.2469C105.732 33.0094 106.004 33.6927 106.38 34.2966C106.756 34.9006 107.261 35.3886 107.884 35.7485C108.513 36.1085 109.29 36.2915 110.233 36.2915C111.176 36.2915 111.959 36.1085 112.601 35.7485C113.242 35.3886 113.747 34.9006 114.124 34.2966C114.5 33.6927 114.771 33.0094 114.925 32.2469C115.079 31.4843 115.159 30.7035 115.159 29.9043ZM171.895 15.9222C171.895 14.7936 170.97 13.8846 169.835 13.8846H166.339V35.3642C166.339 36.3708 166.506 37.1821 166.845 37.8044C167.184 38.4266 167.647 38.9024 168.232 39.238C168.818 39.5735 169.496 39.7992 170.267 39.9151C171.038 40.031 171.851 40.092 172.708 40.092C173.257 40.092 173.818 40.0798 174.392 40.0554C174.965 40.031 175.489 39.9761 175.958 39.9029V35.6448C175.699 35.6997 175.421 35.7363 175.138 35.7607C174.848 35.7851 174.552 35.7973 174.237 35.7973C173.3 35.7973 172.671 35.6448 172.363 35.3337C172.049 35.0226 171.895 34.4064 171.895 33.4731V23.566H173.898C175.039 23.566 175.958 22.6509 175.958 21.5285V19.8935H171.888V15.9344L171.895 15.9222ZM182.271 19.8813H178.781V39.8907H184.337V21.925C184.337 20.7964 183.412 19.8874 182.277 19.8874L182.271 19.8813ZM182.271 12.2558H178.781V14.7448C178.781 15.8734 179.706 16.7823 180.841 16.7823H182.271C183.412 16.7823 184.33 15.8673 184.33 14.7448V14.2934C184.33 13.1648 183.406 12.2558 182.271 12.2558ZM138.952 12.2558H135.462V14.7448C135.462 15.8734 136.387 16.7823 137.522 16.7823H138.952C140.093 16.7823 141.011 15.8673 141.011 14.7448V14.2934C141.011 13.1648 140.087 12.2558 138.952 12.2558Z" fill="black"/>
<path d="M237.249 25.5486C237.742 26.8541 237.995 28.306 237.995 29.9043C237.995 31.5026 237.749 32.9484 237.249 34.2356C236.756 35.5289 236.047 36.627 235.141 37.542C234.228 38.4571 233.124 39.1586 231.836 39.6528C230.547 40.1408 229.105 40.3848 227.514 40.3848C225.923 40.3848 224.487 40.1408 223.21 39.6528C221.934 39.1647 220.837 38.4571 219.924 37.542C219.012 36.627 218.309 35.5228 217.809 34.2356C217.316 32.9484 217.069 31.5026 217.069 29.9043C217.069 28.306 217.316 26.8541 217.809 25.5486C218.302 24.2492 219.005 23.1389 219.924 22.2178C220.837 21.3027 221.928 20.5951 223.21 20.0887C224.487 19.5885 225.923 19.3323 227.514 19.3323C229.105 19.3323 230.547 19.5824 231.836 20.0887C233.124 20.5951 234.228 21.3027 235.141 22.2178C236.053 23.1328 236.756 24.2431 237.249 25.5486ZM232.44 29.9043C232.44 29.1051 232.36 28.3182 232.206 27.5434C232.052 26.7687 231.78 26.0854 231.404 25.4937C231.028 24.902 230.516 24.4139 229.881 24.0418C229.24 23.6697 228.457 23.4806 227.514 23.4806C226.57 23.4806 225.794 23.6697 225.165 24.0418C224.536 24.4139 224.036 24.902 223.66 25.4937C223.284 26.0854 223.013 26.7687 222.859 27.5434C222.705 28.3182 222.625 29.1051 222.625 29.9043C222.625 30.7035 222.705 31.4843 222.859 32.2469C223.013 33.0094 223.284 33.6927 223.66 34.2966C224.036 34.9005 224.542 35.3886 225.165 35.7485C225.794 36.1084 226.57 36.2914 227.514 36.2914C228.451 36.2914 229.24 36.1084 229.881 35.7485C230.523 35.3886 231.028 34.9005 231.404 34.2966C231.78 33.6927 232.052 33.0094 232.206 32.2469C232.36 31.4843 232.44 30.7035 232.44 29.9043ZM211.65 29.2455H209.776C208.857 29.2455 208.099 29.8738 207.852 30.7523C207.519 31.9296 206.97 32.924 206.218 33.7354C205.164 34.87 203.696 35.4374 201.816 35.4374C200.435 35.4374 199.263 35.1751 198.295 34.6443C197.327 34.1136 196.55 33.412 195.946 32.5336C195.348 31.6551 194.91 30.673 194.633 29.5749C194.362 28.4768 194.22 27.3482 194.22 26.1891C194.22 24.9752 194.356 23.8039 194.633 22.6692C194.904 21.5345 195.342 20.5219 195.946 19.6312C196.544 18.7405 197.327 18.0329 198.295 17.5021C199.257 16.9714 200.435 16.7091 201.816 16.7091C202.574 16.7091 203.296 16.8311 203.986 17.0751C204.677 17.3191 205.299 17.6608 205.842 18.1C206.391 18.5392 206.847 19.0456 207.211 19.6312C207.346 19.8447 207.463 20.0704 207.562 20.3022C207.889 21.0526 208.629 21.5467 209.455 21.5467H211.292C212.68 21.5467 213.721 20.1985 213.265 18.9052C213.062 18.3379 212.821 17.8011 212.532 17.2886C211.829 16.0502 210.935 15.0132 209.85 14.1713C208.771 13.3356 207.544 12.695 206.175 12.2558C204.806 11.8166 203.351 11.5969 201.816 11.5969C199.676 11.5969 197.753 11.9691 196.045 12.7194C194.337 13.4698 192.894 14.5007 191.723 15.8123C190.551 17.13 189.651 18.6673 189.022 20.4364C188.4 22.2056 188.085 24.1211 188.085 26.183C188.085 28.245 188.4 30.0751 189.022 31.8137C189.651 33.5524 190.545 35.0714 191.723 36.3585C192.894 37.6518 194.337 38.6584 196.045 39.3966C197.753 40.1347 199.676 40.5007 201.816 40.5007C203.536 40.5007 205.114 40.2445 206.551 39.726C207.988 39.2074 209.239 38.4632 210.306 37.481C211.372 36.4989 212.236 35.3154 212.889 33.9184C213.204 33.2473 213.463 32.5336 213.66 31.7832C213.999 30.496 213 29.2333 211.656 29.2333L211.65 29.2455Z" fill="black"/>
</svg>
