<svg width="54" height="52" viewBox="0 0 54 52" fill="none" xmlns="http://www.w3.org/2000/svg">
<path d="M21.3574 38.8841C21.678 42.8433 22.4117 47.1562 23.5647 51.8231C10.3334 50.237 0 39 0 25.4937C0 18.2037 3.01495 11.5725 7.86722 6.77147C11.0548 3.61755 15.0316 1.25059 19.4708 0C14.8404 2.74519 11.2213 6.85077 9.02018 12.0483C6.28268 18.4843 6.89307 25.939 10.6355 31.4965C13.1942 35.3031 16.9675 37.8714 21.3574 38.8841Z" fill="black"/>
<path d="M25.6172 35.3945C25.4692 35.3945 25.3151 35.3823 25.1733 35.3823C24.9698 25.701 27.8985 20.0703 32.3376 17.8131C37.0111 15.434 42.7081 17.3861 44.5022 20.662C45.8032 23.0534 45.8032 25.3532 44.5022 27.5128C41.7463 32.0759 33.8112 35.3945 25.6111 35.3945H25.6172Z" fill="black"/>
<path d="M53.597 25.4937C53.597 32.7898 50.5821 39.4148 45.7298 44.2281C41.081 48.8278 34.7552 51.7621 27.7511 52C26.5304 47.2722 25.7658 43.0629 25.4082 39.3477C35.1189 39.4148 44.4412 35.3642 47.9556 29.5382C50.0025 26.1464 50.021 22.4191 48.0234 18.771C44.7433 12.7621 36.0684 11.4444 30.4948 14.2872C26.9496 16.099 21.1417 21.1502 21.1848 34.7358C18.25 33.8207 15.7653 31.9662 13.9712 29.3003C10.9747 24.8287 10.4938 18.8076 12.7072 13.5857C17.0971 3.26984 26.1912 0.811369 31.21 0.268431C32.3444 0.146423 33.4419 0.0915189 34.4962 0.10982C38.7874 1.37871 42.6347 3.70907 45.7298 6.77148C50.5821 11.5725 53.597 18.2037 53.597 25.4937Z" fill="black"/>
</svg>
