<svg width="25" height="24" viewBox="0 0 25 24" fill="none" xmlns="http://www.w3.org/2000/svg">
<path fill-rule="evenodd" clip-rule="evenodd" d="M5.94444 1.44223C5.94444 0.719773 5.20186 0.235711 4.54085 0.527287L0.59641 2.26722C0.233911 2.42713 0 2.78597 0 3.18216V22.4391C0 23.1616 0.742586 23.6456 1.40359 23.3541L5.34803 21.6141C5.71053 21.4542 5.94444 21.0954 5.94444 20.6992V1.44223ZM7.94444 20.424C7.94444 20.8739 8.24492 21.2685 8.67867 21.388L15.7898 23.3485C16.4265 23.5241 17.0556 23.045 17.0556 22.3845V3.01623C17.0556 2.5663 16.7551 2.17177 16.3213 2.05219L9.21023 0.0916999C8.57346 -0.083852 7.94444 0.395215 7.94444 1.05573V20.424ZM19.652 1.82611C19.2895 1.98602 19.0556 2.34485 19.0556 2.74105V21.998C19.0556 22.7205 19.7981 23.2045 20.4591 22.913L24.4036 21.173C24.7661 21.0131 25 20.6543 25 20.2581V1.00112C25 0.278662 24.2574 -0.2054 23.5964 0.0861759L19.652 1.82611Z" fill="black"/>
</svg>
