<svg width="23" height="25" viewBox="0 0 23 25" fill="none" xmlns="http://www.w3.org/2000/svg">
<path fill-rule="evenodd" clip-rule="evenodd" d="M4.19444 17.6111H16.3333C18.7427 17.6111 19.9474 17.6111 20.6959 16.8626C21.4444 16.1141 21.4444 14.9094 21.4444 12.5V6.11111C21.4444 3.70171 21.4444 2.49701 20.6959 1.7485C19.9474 1 18.7427 1 16.3333 1H6.11111C3.70171 1 2.49701 1 1.7485 1.7485C1 2.49701 1 3.70171 1 6.11111V20.8056C1 19.0413 2.4302 17.6111 4.19444 17.6111ZM16.4698 8.80308C17.2508 8.02203 17.2508 6.7557 16.4698 5.97465C15.6887 5.1936 14.4224 5.1936 13.6413 5.97465L9.94444 9.67155L8.8031 8.5302C8.02205 7.74915 6.75572 7.74915 5.97467 8.5302C5.19362 9.31125 5.19362 10.5776 5.97467 11.3586L7.82312 13.2071C8.99469 14.3786 10.8942 14.3787 12.0658 13.2071L16.4698 8.80308Z" fill="black"/>
<path d="M16.4698 5.97465L15.7627 6.68175L15.7627 6.68175L16.4698 5.97465ZM16.4698 8.80308L17.1769 9.51018L16.4698 8.80308ZM13.6413 5.97465L12.9342 5.26754L13.6413 5.97465ZM9.94444 9.67155L9.23733 10.3787L9.94444 11.0858L10.6515 10.3787L9.94444 9.67155ZM8.8031 8.5302L9.5102 7.8231L8.8031 8.5302ZM5.97467 11.3586L6.68177 10.6515H6.68177L5.97467 11.3586ZM7.82312 13.2071L7.11601 13.9142L7.82312 13.2071ZM12.0658 13.2071L12.7729 13.9142V13.9142L12.0658 13.2071ZM16.3333 16.6111H4.19444V18.6111H16.3333V16.6111ZM19.9888 16.1555C19.8314 16.313 19.5893 16.4478 19.0042 16.5265C18.3904 16.609 17.5663 16.6111 16.3333 16.6111V18.6111C17.5098 18.6111 18.4927 18.6132 19.2707 18.5086C20.0775 18.4002 20.812 18.1607 21.403 17.5697L19.9888 16.1555ZM20.4444 12.5C20.4444 13.733 20.4423 14.5571 20.3598 15.1709C20.2811 15.7559 20.1463 15.998 19.9888 16.1555L21.403 17.5697C21.9941 16.9787 22.2335 16.2442 22.342 15.4374C22.4466 14.6594 22.4444 13.6764 22.4444 12.5H20.4444ZM20.4444 6.11111V12.5H22.4444V6.11111H20.4444ZM19.9888 2.45561C20.1463 2.6131 20.2811 2.85519 20.3598 3.44022C20.4423 4.05401 20.4444 4.87814 20.4444 6.11111H22.4444C22.4444 4.93468 22.4466 3.95176 22.342 3.17372C22.2335 2.36692 21.9941 1.63242 21.403 1.0414L19.9888 2.45561ZM16.3333 2C17.5663 2 18.3904 2.00212 19.0042 2.08465C19.5893 2.1633 19.8314 2.29813 19.9888 2.45561L21.403 1.0414C20.812 0.450377 20.0775 0.210952 19.2707 0.10248C18.4927 -0.00212371 17.5098 0 16.3333 0V2ZM6.11111 2H16.3333V0H6.11111V2ZM2.45561 2.45561C2.6131 2.29813 2.85519 2.1633 3.44022 2.08465C4.05401 2.00212 4.87814 2 6.11111 2V0C4.93468 0 3.95176 -0.00212371 3.17372 0.10248C2.36692 0.210952 1.63242 0.450377 1.0414 1.0414L2.45561 2.45561ZM2 6.11111C2 4.87814 2.00212 4.05401 2.08465 3.44022C2.1633 2.85519 2.29813 2.6131 2.45561 2.45561L1.0414 1.0414C0.450377 1.63242 0.210952 2.36692 0.10248 3.17372C-0.00212371 3.95176 0 4.93468 0 6.11111H2ZM2 20.8056V6.11111H0V20.8056H2ZM4.19444 16.6111C1.87792 16.6111 0 18.489 0 20.8056H2C2 19.5936 2.98249 18.6111 4.19444 18.6111V16.6111ZM15.7627 6.68175C16.1532 7.07228 16.1532 7.70544 15.7627 8.09597L17.1769 9.51018C18.3484 8.33861 18.3484 6.43911 17.1769 5.26754L15.7627 6.68175ZM14.3484 6.68175C14.739 6.29123 15.3721 6.29123 15.7627 6.68175L17.1769 5.26754C16.0053 4.09597 14.1058 4.09597 12.9342 5.26754L14.3484 6.68175ZM10.6515 10.3787L14.3484 6.68175L12.9342 5.26754L9.23733 8.96444L10.6515 10.3787ZM8.09599 9.23731L9.23733 10.3787L10.6515 8.96444L9.5102 7.8231L8.09599 9.23731ZM6.68177 9.23731C7.0723 8.84679 7.70546 8.84679 8.09599 9.23731L9.5102 7.8231C8.33863 6.65152 6.43913 6.65152 5.26756 7.8231L6.68177 9.23731ZM6.68177 10.6515C6.29125 10.261 6.29125 9.62783 6.68177 9.23731L5.26756 7.8231C4.09599 8.99467 4.09599 10.8942 5.26756 12.0657L6.68177 10.6515ZM8.53022 12.5L6.68177 10.6515L5.26756 12.0657L7.11601 13.9142L8.53022 12.5ZM11.3587 12.5C10.5776 13.281 9.31127 13.281 8.53022 12.5L7.11601 13.9142C8.6781 15.4763 11.2108 15.4763 12.7729 13.9142L11.3587 12.5ZM15.7627 8.09597L11.3587 12.5L12.7729 13.9142L17.1769 9.51018L15.7627 8.09597ZM9.94444 23H4.19444V25H9.94444V23ZM0 20.8056C0 23.1221 1.87792 25 4.19444 25V23C2.98249 23 2 22.0175 2 20.8056H0Z" fill="black"/>
</svg>
