<svg width="25" height="24" viewBox="0 0 25 24" fill="none" xmlns="http://www.w3.org/2000/svg">
<path d="M1 6.59586C1 6.42456 1 6.33891 1.02746 6.2595C1.05493 6.18009 1.10785 6.11274 1.21368 5.97804L3.92387 2.52871C4.51383 1.77785 4.80881 1.40242 5.2228 1.20121C5.63678 1 6.11423 1 7.06914 1H16.9309C17.8858 1 18.3632 1 18.7772 1.20121C19.1912 1.40242 19.4862 1.77785 20.0761 2.52871L22.7863 5.97804C22.8922 6.11274 22.9451 6.18009 22.9725 6.2595C23 6.33891 23 6.42456 23 6.59586V8H1V6.59586Z" stroke="#222222" stroke-width="2"/>
<path fill-rule="evenodd" clip-rule="evenodd" d="M24.3529 6.41187H0V20.0001C0 21.8857 0 22.8285 0.585786 23.4143C1.17157 24.0001 2.11438 24.0001 4 24.0001H20.3529C22.2386 24.0001 23.1814 24.0001 23.7672 23.4143C24.3529 22.8285 24.3529 21.8857 24.3529 20.0001V6.41187ZM9.11765 10.4707C9.11765 9.91843 8.66993 9.47071 8.11765 9.47071C7.56536 9.47071 7.11765 9.91843 7.11765 10.4707C7.11765 11.8124 7.65063 13.0991 8.59934 14.0478C9.54806 14.9966 10.8348 15.5295 12.1765 15.5295C13.5182 15.5295 14.8049 14.9966 15.7536 14.0478C16.7023 13.0991 17.2353 11.8124 17.2353 10.4707C17.2353 9.91843 16.7876 9.47071 16.2353 9.47071C15.683 9.47071 15.2353 9.91843 15.2353 10.4707C15.2353 11.282 14.913 12.06 14.3394 12.6336C13.7657 13.2073 12.9877 13.5295 12.1765 13.5295C11.3652 13.5295 10.5872 13.2073 10.0136 12.6336C9.43991 12.06 9.11765 11.282 9.11765 10.4707Z" fill="#222222"/>
</svg>
