<svg width="23" height="24" viewBox="0 0 23 24" fill="none" xmlns="http://www.w3.org/2000/svg">
<path d="M16.6111 1L16.6111 4.83333M6.38886 1L6.38886 4.83333" stroke="#222222" stroke-width="2" stroke-linecap="round"/>
<path fill-rule="evenodd" clip-rule="evenodd" d="M14.6111 2.27783H8.38889L8.38889 4.83333C8.38889 5.9379 7.49346 6.83333 6.38889 6.83333C5.28432 6.83333 4.38889 5.9379 4.38889 4.83333L4.38889 2.3317C2.82969 2.42607 1.83755 2.6858 1.12276 3.40059C0 4.52335 0 6.3304 0 9.9445V16.3334C0 19.9475 0 21.7545 1.12276 22.8773C2.24551 24.0001 4.05257 24.0001 7.66667 24.0001H15.3333C18.9474 24.0001 20.7545 24.0001 21.8772 22.8773C23 21.7545 23 19.9475 23 16.3334V9.9445C23 6.3304 23 4.52335 21.8772 3.40059C21.1625 2.6858 20.1703 2.42607 18.6111 2.3317L18.6111 4.83333C18.6111 5.9379 17.7157 6.83333 16.6111 6.83333C15.5065 6.83333 14.6111 5.9379 14.6111 4.83333L14.6111 2.27783ZM5.38889 12.5C5.38889 11.9477 5.8366 11.5 6.38889 11.5L16.6111 11.5C17.1634 11.5 17.6111 11.9477 17.6111 12.5C17.6111 13.0523 17.1634 13.5 16.6111 13.5L6.38889 13.5C5.8366 13.5 5.38889 13.0523 5.38889 12.5ZM6.38889 16.6111C5.8366 16.6111 5.38889 17.0588 5.38889 17.6111C5.38889 18.1634 5.8366 18.6111 6.38889 18.6111H16.6111C17.1634 18.6111 17.6111 18.1634 17.6111 17.6111C17.6111 17.0588 17.1634 16.6111 16.6111 16.6111L6.38889 16.6111Z" fill="#222222"/>
</svg>
